<svg xmlns="http://www.w3.org/2000/svg" version="1.1" xmlns:xlink="http://www.w3.org/1999/xlink" xmlns:svgjs="http://svgjs.dev/svgjs" width="400" height="900" preserveAspectRatio="none" viewBox="0 0 400 900"><g mask="url(&quot;#SvgjsMask1016&quot;)" fill="none"><path d="M65.503,540.01C86.711,539.983,105.087,525.509,114.509,506.509C122.99,489.407,118.299,469.772,108.441,453.425C98.965,437.712,83.851,425.05,65.503,425.247C47.437,425.441,33.484,438.872,24.134,454.331C14.354,470.501,8.059,489.62,16.276,506.637C25.515,525.771,44.255,540.038,65.503,540.01" fill="rgba(203, 0, 0, 0.4)" class="triangle-float3"></path><path d="M115.857,86.672C136.222,86.166,156.962,80.025,167.558,62.627C178.539,44.598,177.5,21.556,166.482,3.549C155.919,-13.714,136.094,-21.675,115.857,-21.868C95.226,-22.065,74.731,-14.761,63.531,2.567C51.338,21.431,47.642,46.238,59.508,65.31C70.881,83.59,94.335,87.206,115.857,86.672" fill="rgba(203, 0, 0, 0.4)" class="triangle-float3"></path><path d="M197.276,857.58C236.426,856.361,271.279,834.871,291.314,801.213C311.856,766.703,318.109,723.529,297.636,688.978C277.494,654.985,236.781,643.265,197.276,642.512C156.078,641.726,112.156,650.239,90.06,685.019C66.609,721.932,69.441,770.255,92.521,807.401C114.422,842.649,155.798,858.871,197.276,857.58" fill="rgba(203, 0, 0, 0.4)" class="triangle-float1"></path><path d="M62.249,403.756C84.322,404.053,108.481,399.055,119.182,379.747C129.671,360.821,120.568,338.144,108.606,320.113C98.091,304.262,81.255,294.698,62.249,293.924C41.619,293.084,20.045,298.697,8.861,316.053C-3.177,334.733,-3.647,359.267,7.908,378.25C19.059,396.569,40.805,403.468,62.249,403.756" fill="rgba(203, 0, 0, 0.4)" class="triangle-float2"></path><path d="M339.721,903.575C371.732,905.037,403.381,892.685,421.182,866.04C441.164,836.131,449.588,797.112,431.695,765.908C413.731,734.581,375.817,722.896,339.721,723.978C305.662,724.999,272.413,740.85,256.829,771.151C242.286,799.428,253.336,832.19,270.207,859.143C285.846,884.127,310.277,902.23,339.721,903.575" fill="rgba(203, 0, 0, 0.4)" class="triangle-float1"></path><path d="M56.019,148.911C84.474,149.943,112.541,137.25,127.04,112.744C141.786,87.82,139.65,56.894,125.362,31.705C110.87,6.156,85.389,-12.011,56.019,-12.463C25.895,-12.926,-3.215,2.786,-17.121,29.513C-30.162,54.577,-21.363,83.802,-6.604,107.895C7.366,130.7,29.293,147.941,56.019,148.911" fill="rgba(203, 0, 0, 0.4)" class="triangle-float3"></path></g><defs><mask id="SvgjsMask1016"><rect width="400" height="900" fill="#ffffff"></rect></mask><style>
                @keyframes float1 {
                    0%{transform: translate(0, 0)}
                    50%{transform: translate(-10px, 0)}
                    100%{transform: translate(0, 0)}
                }

                .triangle-float1 {
                    animation: float1 5s infinite;
                }

                @keyframes float2 {
                    0%{transform: translate(0, 0)}
                    50%{transform: translate(-5px, -5px)}
                    100%{transform: translate(0, 0)}
                }

                .triangle-float2 {
                    animation: float2 4s infinite;
                }

                @keyframes float3 {
                    0%{transform: translate(0, 0)}
                    50%{transform: translate(0, -10px)}
                    100%{transform: translate(0, 0)}
                }

                .triangle-float3 {
                    animation: float3 6s infinite;
                }
            </style></defs></svg>